# xmcd
#
# Track frame offsets:
#	150
#	12791
#	24928
#	36392
#	48940
#	59551
#	68065
#	80908
#	93206
#	103770
#	115384
#	126537
#	142085
#	158431
#
# Disc length: 2308 seconds
#
# Revision: 1
# Processed by: cddbd v1.5.2PL0 Copyright (c) Steve Scherf et al.
# Submitted via: audiograbber 1.83.01
#
DISCID=bf09020e
DTITLE=Nancy Sinatra - Country, My Way
DYEAR=1900
DGENRE=Country
TTITLE0=It's Such A Pretty World Today
TTITLE1=Get While The Gettin's Good
TTITLE2=Walk Through This World With Me
TTITLE3=Jackson (with Lee Hazlewood)
TTITLE4=When It's Over
TTITLE5=Lay Some Happiness On Me
TTITLE6=Lonely Again
TTITLE7=By The Way (I Still Love You
TTITLE8=Oh Lonesome Me (with Lee Hazlewood)
TTITLE9=End Of The World
TTITLE10=Help Stamp Out Loneliness
TTITLE11=Highway Song (bonus track)
TTITLE12=Are You Growing Tired Of My Love (bonus track)
TTITLE13=Hello L.A., Bye Bye Birmingham (bonus track)
EXTD=
EXTT0=
EXTT1=
EXTT2=
EXTT3=
EXTT4=
EXTT5=
EXTT6=
EXTT7=
EXTT8=
EXTT9=
EXTT10=
EXTT11=
EXTT12=
EXTT13=
PLAYORDER=
